HIERARCHY
ROOT Root
{
  OFFSET 5.5788 11.8871 -2.12402
  CHANNELS 6 Xposition Yposition Zposition Zrotation Xrotation Yrotation
  JOINT Spine
  {
    OFFSET 5.3114 0 0
    CHANNELS 3 Zrotation Xrotation Yrotation
    JOINT Spine1
    {
      OFFSET 2.79004 0 0
      CHANNELS 3 Zrotation Xrotation Yrotation
      JOINT Neck
      {
        OFFSET 1.43377 0 0
        CHANNELS 3 Zrotation Xrotation Yrotation
        JOINT Head
        {
          OFFSET 1.86043 0 0
          CHANNELS 3 Zrotation Xrotation Yrotation
          End Site
          {
            OFFSET 0 0 0
          }
        }
      }
      JOINT LeftArm
      {
        OFFSET 0.0387506 0 2.55754
        CHANNELS 3 Zrotation Xrotation Yrotation
        JOINT LeftForeArm
        {
          OFFSET 4.24845 0 0
          CHANNELS 3 Zrotation Xrotation Yrotation
          JOINT LeftHand
          {
            OFFSET 4.01008 0 0
            CHANNELS 3 Zrotation Xrotation Yrotation
            End Site
            {
              OFFSET 0 0 0
            }
          }
        }
      }
      JOINT RightArm
      {
        OFFSET 0.0387506 0 -2.55754
        CHANNELS 3 Zrotation Xrotation Yrotation
        JOINT RightForeArm
        {
          OFFSET -4.24845 0 0
          CHANNELS 3 Zrotation Xrotation Yrotation
          JOINT RightHand
          {
            OFFSET -4.01009 0 0
            CHANNELS 3 Zrotation Xrotation Yrotation
            End Site
            {
              OFFSET 0 0 0
            }
          }
        }
      }
    }
  }
  JOINT LeftUpLeg
  {
    OFFSET -1.23318 0 2.05692
    CHANNELS 3 Zrotation Xrotation Yrotation
    JOINT LeftLeg
    {
      OFFSET 5.46397 0 0
      CHANNELS 3 Zrotation Xrotation Yrotation
      JOINT LeftFoot
      {
        OFFSET 4.68898 0 0
        CHANNELS 3 Zrotation Xrotation Yrotation
        End Site
        {
          OFFSET 0 0 0
        }
      }
    }
  }
  JOINT RightUpLeg
  {
    OFFSET -1.24454 0 -2.05007
    CHANNELS 3 Zrotation Xrotation Yrotation
    JOINT RightLeg
    {
      OFFSET -5.46397 0 0
      CHANNELS 3 Zrotation Xrotation Yrotation
      JOINT RightFoot
      {
        OFFSET -4.68901 0 0
        CHANNELS 3 Zrotation Xrotation Yrotation
        End Site
        {
          OFFSET 0 0 0
        }
      }
    }
  }
}
MOTION
Frames:	26
Frame Time:	0.00833333
5.5788 11.8871 -2.12402 -0 90 90 9.69808e-018 1.34041e-020 0.158382 1.41245e-030 7.06225e-031 2.48481e-017 -7.30747e-017 7.61111e-019 -1.19349 3.40995e-017 1.65719e-019 0.556895 -2.12238e-008 -1.53545e-005 -90.1584 -2.50273e-005 -2.47192e-012 6.55612e-006 1.52588e-005 -6.98387e-015 174.455 180 -4.60993e-005 -89.8417 -5.49628e-005 -2.25992e-011 3.612e-005 1.52588e-005 6.98387e-015 174.455 -3.96535 -0.249892 -175.995 -8.60219 0.176745 -0.869964 4.63081 -0.0778712 176.868 177.973 -0.126102 -176.037 -4.39614 0.0840615 -0.877212 2.36573 -0.0334188 176.598 
5.54112 11.8937 -2.25751 92.1642 63.8488 0.84502 -1.37122 0.0498857 1.31503 1.71867 0.0435223 0.466163 -5.34563 0.233473 -1.2687 8.00914 0.321529 -0.17993 8.30158 -3.4174 -112.374 8.21343 0.535726 4.6729 -0.41501 -4.73038 174.442 -179.692 -0.716669 -112.694 6.85816 0.276114 3.94803 0.490225 5.58105 174.438 -10.5423 -0.367731 -176.596 -22.5478 -0.206164 -1.16455 9.92782 -0.98629 177.365 172.265 -1.27459 -178.239 -12.4543 -0.180119 -1.00626 1.35226 3.77456 176.832 
5.50291 11.9008 -2.3976 95.4554 36.2049 0.944363 -2.82275 0.0906286 2.53668 3.53637 0.0861919 0.960345 -10.9958 0.483362 -1.34908 16.469 0.666111 -0.965489 13.0054 -13.1531 -134.87 16.798 1.08942 9.6122 -0.859707 -9.73265 174.388 179.676 -2.72641 -136.81 14.053 0.561204 8.11415 1.01847 11.4856 174.361 -17.4542 -0.49799 -177.229 -37.2522 -0.609956 -1.47473 15.5296 -1.91924 177.877 166.126 -2.4838 179.433 -20.9719 -0.459316 -1.14262 0.236517 7.7946 177.068 
5.46575 11.907 -2.52449 98.54 11.5516 1.14037 -4.11971 0.149396 3.62834 5.15388 0.130532 1.39849 -16.035 0.700375 -1.41921 24.0522 0.964191 -1.65381 11.0882 -24.5678 -155.166 24.381 1.5645 14.0234 -1.26733 -14.1902 174.301 177.817 -5.21087 -158.336 20.4613 0.812635 11.8451 1.50763 16.7416 174.238 -23.7037 -0.60369 -177.798 -50.4507 -0.971695 -1.75395 20.569 -2.80487 178.356 160.584 -3.56899 177.349 -28.5743 -0.70841 -1.26443 -0.764791 11.3953 177.268 
5.4312 11.9112 -2.61835 100.822 -5.62985 1.39349 -5.02834 0.253329 4.39504 6.27216 0.179077 1.69654 -19.5481 0.835231 -1.46366 29.4253 1.14649 -2.09877 5.14696 -32.3151 -170.92 29.6411 1.88348 17.1099 -1.5602 -17.287 174.218 175.505 -7.39224 -173.417 24.9811 0.994417 14.487 1.86238 20.3783 174.12 -28.2917 -0.647814 -178.204 -59.8759 -1.22853 -1.95556 24.1738 -3.57128 178.751 156.717 -4.35086 175.88 -33.8867 -0.882299 -1.34974 -1.41737 13.9444 177.398 
5.401 11.9126 -2.66604 101.771 -12.3582 1.57342 -5.39708 0.425059 4.70935 6.68957 0.234881 1.79915 -20.9257 0.854591 -1.47125 31.7008 1.166 -2.20337 1.60664 -35.0238 -177.778 31.7274 2.01195 18.3391 -1.6742 -18.4644 174.181 174.03 -9.22841 -179.389 26.8719 1.08496 15.5932 2.00137 21.7571 174.067 -30.5621 -0.601154 -178.38 -64.0616 -1.3398 -2.04981 25.791 -4.20442 179.044 155.263 -4.71861 175.276 -35.9978 -0.951077 -1.38408 -1.5552 15.0197 177.436 
5.37385 11.9118 -2.68074 101.679 -11.622 1.63541 -5.37848 0.645133 4.70045 6.60681 0.295817 1.76211 -20.7779 0.791478 -1.45254 31.7624 1.06935 -2.0648 2.04969 -34.9084 -177.115 31.5647 2.01256 18.2411 -1.65544 -18.2719 174.187 173.71 -10.9805 -178.788 26.8942 1.11375 15.6028 1.9776 21.5232 174.076 -31.1762 -0.48987 -178.391 -64.5015 -1.34708 -2.06727 25.9847 -4.74071 179.263 155.553 -4.79318 175.292 -35.8217 -0.944774 -1.38199 -1.31936 15.0421 177.409 
5.34686 11.9103 -2.68217 101.146 -7.89515 1.64708 -5.19552 0.877521 4.55823 6.32828 0.356649 1.66813 -20.0192 0.696164 -1.42475 30.9323 0.927878 -1.8282 4.12159 -33.6648 -173.423 30.5018 1.96203 17.6115 -1.58604 -17.5552 174.209 174.129 -12.6923 -175.495 26.2006 1.12435 15.1905 1.88769 20.6312 174.11 -31.1103 -0.360004 -178.341 -63.3685 -1.31088 -2.05173 25.5563 -5.184 179.429 156.566 -4.74642 175.559 -34.7212 -0.908206 -1.36511 -0.933586 14.644 177.357 
5.31712 11.9093 -2.69001 100.801 -5.65106 1.68381 -5.07397 1.08597 4.47256 6.15803 0.412128 1.5999 -19.5642 0.61892 -1.40507 30.5316 0.813006 -1.63866 5.29264 -32.9331 -171.291 29.8862 1.93632 17.2463 -1.54809 -17.1603 174.221 174.384 -14.4086 -173.471 25.9412 1.15954 15.0313 1.8283 20.0357 174.132 -31.34 -0.257581 -178.334 -62.8357 -1.29171 -2.04698 25.3081 -5.53814 179.565 157.28 -4.74969 175.708 -34.059 -0.886183 -1.35509 -0.621337 14.458 177.318 
5.28399 11.9092 -2.70744 100.737 -5.63079 1.75263 -5.04054 1.26521 4.47124 6.14358 0.461317 1.5685 -19.5664 0.566324 -1.39693 30.7862 0.734598 -1.51344 5.3363 -33.0892 -171.37 29.9428 1.94861 17.2778 -1.55615 -17.243 174.218 174.143 -16.2155 -173.409 26.3053 1.22486 15.2371 1.81452 19.8967 174.136 -32.0186 -0.196416 -178.387 -63.267 -1.2989 -2.06044 25.3678 -5.76907 179.663 157.537 -4.83583 175.679 -34.0629 -0.886076 -1.35556 -0.4125 14.5961 177.298 
5.249 11.9091 -2.72466 100.647 -5.59912 1.82033 -4.9858 1.43314 4.46062 6.13396 0.506861 1.53349 -19.5681 0.513838 -1.39156 31.034 0.657622 -1.3823 5.38344 -33.2466 -171.443 29.9972 1.96049 17.3081 -1.56903 -17.3754 174.214 173.922 -18.0496 -173.314 26.718 1.29927 15.4706 1.79868 19.7366 174.142 -32.6613 -0.151449 -178.448 -63.5753 -1.30244 -2.07016 25.3338 -5.88643 179.714 157.845 -4.91767 175.656 -34.0511 -0.885509 -1.3557 -0.197989 14.7397 177.278 
5.2124 11.9091 -2.74187 100.553 -5.56483 1.88395 -4.93373 1.58801 4.44829 6.13521 0.548878 1.50026 -19.5673 0.465076 -1.38779 31.2611 0.586235 -1.25907 5.43043 -33.3998 -171.517 30.0512 1.97229 17.3382 -1.58388 -17.5278 174.209 173.726 -19.8609 -173.191 27.1833 1.38576 15.7332 1.78064 19.5538 174.148 -33.2864 -0.110373 -178.516 -63.7571 -1.30385 -2.07593 25.216 -5.95969 179.743 158.176 -4.98688 175.635 -34.0229 -0.884688 -1.35545 0.00913554 14.8759 177.261 
5.17446 11.909 -2.75929 100.48 -5.53667 1.94055 -4.90841 1.72808 4.44188 6.15335 0.587487 1.47417 -19.5615 0.423648 -1.38449 31.4538 0.524599 -1.15756 5.47358 -33.5431 -171.6 30.1063 1.98437 17.3688 -1.5978 -17.6707 174.205 173.558 -21.5993 -173.046 27.7051 1.48728 16.0262 1.76027 19.3468 174.155 -33.9123 -0.0608793 -178.588 -63.8087 -1.30467 -2.07754 25.0247 -6.05827 179.773 158.501 -5.03516 175.612 -33.9772 -0.883815 -1.35476 0.195751 14.9915 177.249 
5.13499 11.9086 -2.77695 100.432 -5.5151 1.99094 -4.92111 1.84968 4.44181 6.19948 0.622066 1.45947 -19.5482 0.390654 -1.38327 31.6001 0.472881 -1.0838 5.50364 -33.6732 -171.704 30.1603 1.9962 17.3989 -1.61091 -17.8055 174.2 173.421 -23.2603 -172.878 28.2999 1.60659 16.3593 1.7386 19.126 174.162 -34.5471 0.00311255 -178.667 -63.7237 -1.30529 -2.0746 24.7332 -6.2202 179.814 158.819 -5.05136 175.591 -33.9118 -0.882826 -1.35356 0.356793 15.0785 177.246 
5.09393 11.9082 -2.79474 100.397 -5.49608 2.03616 -4.95741 1.95481 4.44453 6.26717 0.652771 1.45236 -19.5293 0.364122 -1.38411 31.7101 0.429182 -1.02963 5.52529 -33.7938 -171.82 30.2132 2.0078 17.4283 -1.62446 -17.9448 174.196 173.315 -24.8671 -172.684 28.9595 1.7412 16.7288 1.71538 18.8888 174.169 -35.1798 0.0741068 -178.754 -63.5056 -1.30492 -2.06735 24.3459 -6.40193 179.852 159.143 -5.04288 175.573 -33.8278 -0.88165 -1.3519 0.499712 15.1455 177.249 
5.05178 11.9077 -2.81267 100.373 -5.48161 2.0736 -5.00293 2.0502 4.45173 6.33625 0.680878 1.44615 -19.5093 0.343057 -1.38338 31.8025 0.394562 -0.987616 5.55573 -33.9091 -171.932 30.27 2.02032 17.4599 -1.63726 -18.0758 174.191 173.239 -26.4121 -172.47 29.6515 1.88613 17.1156 1.68851 18.6135 174.178 -35.8002 0.144047 -178.839 -63.1668 -1.30323 -2.05646 23.9197 -6.5506 179.876 159.467 -5.02929 175.547 -33.7295 -0.880489 -1.34989 0.630159 15.2039 177.254 
5.00907 11.9071 -2.83074 100.356 -5.47369 2.10068 -5.04329 2.14257 4.46508 6.38652 0.707668 1.43414 -19.4928 0.326461 -1.37747 31.8962 0.370077 -0.950332 5.61232 -34.0235 -172.021 30.3358 2.03488 17.4964 -1.64806 -18.1854 174.187 173.19 -27.8875 -172.244 30.3431 2.03652 17.5005 1.65594 18.2786 174.188 -36.3981 0.204873 -178.912 -62.7193 -1.29992 -2.04263 23.5116 -6.61333 179.875 159.789 -5.03013 175.504 -33.621 -0.87954 -1.34763 0.753796 15.2655 177.26 
4.96592 11.9064 -2.84905 100.348 -5.47307 2.10997 -5.07752 2.23104 4.49157 6.41109 0.732872 1.4163 -19.4808 0.316224 -1.36568 32.0004 0.360524 -0.915894 5.70706 -34.1376 -172.081 30.4207 2.05379 17.5435 -1.65687 -18.2727 174.185 173.173 -29.306 -172.005 31.0361 2.19312 17.8844 1.61498 17.8557 174.201 -36.9756 0.244507 -178.965 -62.1611 -1.29431 -2.02588 23.1279 -6.54647 179.835 160.1 -5.05498 175.428 -33.5054 -0.879086 -1.3452 0.873533 15.334 177.265 
4.92206 11.9057 -2.86757 100.35 -5.47861 2.10512 -5.11241 2.31291 4.52811 6.42123 0.75601 1.39563 -19.4709 0.31216 -1.34985 32.1034 0.363834 -0.888233 5.8285 -34.2494 -172.124 30.5191 2.07575 17.5981 -1.66421 -18.3438 174.182 173.189 -30.6665 -171.75 31.7439 2.35765 18.2754 1.56758 17.3639 174.215 -37.5365 0.270554 -179.003 -61.4876 -1.28675 -2.0059 22.7413 -6.38807 179.764 160.406 -5.09193 175.33 -33.3798 -0.878944 -1.34251 0.985882 15.4031 177.269 
4.87739 11.9049 -2.88609 100.358 -5.48949 2.10006 -5.14512 2.39217 4.56133 6.42405 0.778047 1.36994 -19.4627 0.310155 -1.3302 32.1936 0.370771 -0.868627 5.95885 -34.359 -172.151 30.6122 2.09657 17.6498 -1.6697 -18.396 174.18 173.224 -31.9415 -171.486 32.4525 2.52693 18.6658 1.51859 16.8527 174.23 -38.0737 0.304483 -179.045 -60.7066 -1.27853 -1.98286 22.3585 -6.20779 179.689 160.717 -5.12832 175.233 -33.2393 -0.878617 -1.33949 1.0869 15.4688 177.277 
4.83179 11.9041 -2.90441 100.368 -5.50488 2.10875 -5.17278 2.47286 4.57783 6.42664 0.799948 1.33709 -19.4556 0.306095 -1.30694 32.2589 0.372097 -0.858357 6.08029 -34.4667 -172.167 30.6814 2.11204 17.6882 -1.67294 -18.4266 174.179 173.267 -33.1032 -171.224 33.1481 2.69782 19.0475 1.47274 16.3718 174.243 -38.58 0.367768 -179.105 -59.8262 -1.27092 -1.95691 21.9856 -6.07532 179.634 161.043 -5.15145 175.161 -33.0789 -0.877609 -1.33603 1.17263 15.5276 177.29 
4.78543 11.9032 -2.92237 100.388 -5.52533 2.14163 -5.19802 2.55946 4.56832 6.42567 0.822839 1.29484 -19.4494 0.297603 -1.27702 32.2952 0.361025 -0.866557 6.19634 -34.5813 -172.167 30.7259 2.12202 17.7129 -1.67347 -18.4313 174.179 173.312 -34.1313 -170.967 33.8354 2.87213 19.4227 1.43123 15.9339 174.254 -39.0655 0.474394 -179.194 -58.8407 -1.26462 -1.92763 21.6128 -6.00827 179.603 161.376 -5.15752 175.125 -32.9115 -0.875979 -1.33256 1.24467 15.5816 177.31 
4.73831 11.9021 -2.94013 100.415 -5.55103 2.18903 -5.22112 2.6487 4.54185 6.41912 0.845917 1.2449 -19.4443 0.287299 -1.24137 32.309 0.343923 -0.889613 6.31394 -34.6999 -172.151 30.7545 2.12843 17.7287 -1.67163 -18.4128 174.179 173.363 -35.0452 -170.714 34.5189 3.0506 19.7944 1.39148 15.5128 174.265 -39.5298 0.61016 -179.301 -57.7483 -1.25883 -1.89507 21.2406 -5.96981 179.584 161.712 -5.15343 175.111 -32.7352 -0.873927 -1.32899 1.30422 15.6319 177.335 
4.69004 11.9012 -2.95789 100.438 -5.58059 2.2347 -5.23568 2.73293 4.51251 6.41604 0.867247 1.19098 -19.4409 0.278569 -1.20616 32.3051 0.331289 -0.909683 6.4203 -34.8047 -172.13 30.762 2.13016 17.7329 -1.66818 -18.3785 174.181 173.419 -35.8769 -170.463 35.1848 3.22855 20.1554 1.35261 15.0994 174.275 -39.9494 0.754254 -179.412 -56.5633 -1.25255 -1.86019 20.8896 -5.94791 179.574 162.077 -5.14269 175.102 -32.5219 -0.871169 -1.32441 1.34677 15.6725 177.365 
4.64023 11.9004 -2.9759 100.444 -5.61264 2.26239 -5.23541 2.80452 4.49441 6.42544 0.884894 1.13682 -19.4393 0.274796 -1.17754 32.288 0.333619 -0.908923 6.50246 -34.8777 -172.114 30.7437 2.1261 17.7227 -1.66388 -18.336 174.182 173.482 -36.6585 -170.211 35.8195 3.4014 20.4985 1.31374 14.6847 174.285 -40.3013 0.885863 -179.513 -55.2998 -1.24479 -1.82393 20.5805 -5.93056 179.571 162.497 -5.12872 175.078 -32.2437 -0.867422 -1.31791 1.36779 15.6974 177.397 
4.58845 11.8998 -2.99426 100.423 -5.65454 2.26403 -5.21399 2.86679 4.49624 6.45544 0.899665 1.07925 -19.4438 0.276894 -1.16115 32.2534 0.355848 -0.871993 6.55392 -34.9145 -172.104 30.6962 2.11539 17.6964 -1.65858 -18.284 174.184 173.55 -37.4055 -169.956 36.4298 3.57195 20.8267 1.27252 14.2439 174.296 -40.5717 0.99852 -179.594 -53.9542 -1.23562 -1.78609 20.3281 -5.90556 179.573 162.986 -5.11365 175.032 -31.8848 -0.862455 -1.30906 1.35642 15.7065 177.433 
